<?xml version="1.0" encoding="UTF-8" standalone="no"?><svg xmlns="http://www.w3.org/2000/svg" xmlns:xlink="http://www.w3.org/1999/xlink" fill="none" height="362.6" preserveAspectRatio="xMidYMid meet" style="fill: none" version="1" viewBox="14.0 70.3 482.2 362.6" width="482.2" zoomAndPan="magnify"><g id="change1_1"><path d="M152.448 432.907H295.13H353.525C369.254 432.907 384.513 427.54 396.78 417.693L407.274 409.269C437.042 385.373 436.389 339.849 405.948 316.816L403.551 315.003C376.587 294.6 373.728 255.131 397.471 231.055C419.784 208.428 418.81 171.785 395.325 150.377L337.272 97.4578C307.51 70.3271 261.093 73.6634 235.516 104.772C223.089 119.886 204.931 129.143 185.401 130.322L150.512 132.427C111.288 134.794 82.8197 170.718 89.4761 209.448C93.9117 235.256 82.743 261.382 62.1728 277.585C61.2548 278.308 60.333 279.036 59.4078 279.767C22.0245 309.338 23.0801 364.426 62.0705 391.842C70.2343 397.583 78.2551 403.357 85.7058 408.947C105.045 423.458 128.271 432.907 152.448 432.907Z" fill="#e7e8ff"/></g><g id="change2_1"><path d="M93.9375 133.12C93.9375 128.561 97.6328 124.866 102.191 124.866H308.428C312.986 124.866 316.681 128.561 316.681 133.12V311.379C316.681 315.937 312.986 319.632 308.428 319.632H102.191C97.6328 319.632 93.9375 315.937 93.9375 311.379V133.12Z" fill="#ffffff"/></g><g id="change3_1"><path clip-rule="evenodd" d="M92.7012 133.12C92.7012 127.878 96.9503 123.629 102.192 123.629H308.428C313.67 123.629 317.919 127.878 317.919 133.12V311.379C317.919 316.62 313.67 320.869 308.428 320.869H102.192C96.9503 320.869 92.7012 316.62 92.7012 311.379V133.12ZM102.192 126.103C98.3168 126.103 95.1754 129.245 95.1754 133.12V311.379C95.1754 315.254 98.3168 318.395 102.192 318.395H308.428C312.304 318.395 315.445 315.254 315.445 311.379V133.12C315.445 129.245 312.304 126.103 308.428 126.103H102.192Z" fill="#a3be61" fill-rule="evenodd"/></g><g id="change4_1"><path d="M168.724 272.286C165.281 281.755 151.507 287.709 145.051 289.503H295.161V223.325C291.933 233.906 281.818 255.069 267.183 255.069C248.89 255.069 254.809 224.939 237.054 224.939C219.299 224.939 223.603 270.672 210.152 270.672C196.702 270.672 196.164 248.075 185.403 248.075C174.642 248.075 173.028 260.449 168.724 272.286Z" fill="#f4ad5e"/></g><g id="change3_2"><path d="M295.16 289.503V207.184C271.487 207.184 267.183 258.297 252.656 258.297C238.129 258.297 244.047 226.015 221.45 226.015C198.853 226.015 205.309 271.748 184.864 271.748C173.566 271.748 176.794 256.145 160.115 256.145C147.694 256.145 142.898 268.52 139.132 274.438C134.235 282.133 126.04 288.068 121.377 289.503H295.16Z" fill="#a3be61"/></g><g id="change3_3"><path d="M93.9375 133.12C93.9375 128.561 97.6328 124.866 102.191 124.866H308.428C312.986 124.866 316.681 128.561 316.681 133.12V149.615H93.9375V133.12Z" fill="#a3be61"/></g><g id="change2_2"><path d="M116.651 137.417C116.651 140.387 114.242 142.796 111.272 142.796C108.301 142.796 105.893 140.387 105.893 137.417C105.893 134.446 108.301 132.038 111.272 132.038C114.242 132.038 116.651 134.446 116.651 137.417Z" fill="#ffffff"/></g><g id="change2_3"><path d="M134.582 137.417C134.582 140.387 132.174 142.796 129.203 142.796C126.232 142.796 123.824 140.387 123.824 137.417C123.824 134.446 126.232 132.038 129.203 132.038C132.174 132.038 134.582 134.446 134.582 137.417Z" fill="#ffffff"/></g><g id="change2_4"><path d="M152.508 137.417C152.508 140.387 150.1 142.796 147.129 142.796C144.158 142.796 141.75 140.387 141.75 137.417C141.75 134.446 144.158 132.038 147.129 132.038C150.1 132.038 152.508 134.446 152.508 137.417Z" fill="#ffffff"/></g><g id="change1_2"><path d="M125.143 195.132C125.143 193.765 126.25 192.658 127.617 192.658H208.753C210.119 192.658 211.227 193.765 211.227 195.132V196.64C211.227 198.006 210.119 199.114 208.753 199.114H127.617C126.25 199.114 125.143 198.006 125.143 196.64V195.132Z" fill="#e7e8ff"/></g><g id="change1_3"><path d="M125.143 211.273C125.143 209.906 126.25 208.798 127.617 208.798H171.091C172.457 208.798 173.565 209.906 173.565 211.273V212.781C173.565 214.147 172.457 215.255 171.091 215.255H127.617C126.25 215.255 125.143 214.147 125.143 212.781V211.273Z" fill="#e7e8ff"/></g><g id="change4_2"><path d="M125.143 171.458C125.143 170.092 126.25 168.984 127.617 168.984H149.57C150.936 168.984 152.044 170.092 152.044 171.458V172.966C152.044 174.333 150.936 175.441 149.57 175.441H127.617C126.25 175.441 125.143 174.333 125.143 172.966V171.458Z" fill="#f4ad5e"/></g><g id="change3_4"><path clip-rule="evenodd" d="M296.397 173.289V290.74H119.602V235.7H122.076V288.266H293.923V173.289H296.397Z" fill="#a3be61" fill-rule="evenodd"/></g><g id="change3_5"><path d="M492.95 364.627C459.928 380.854 446.198 415.478 443.893 431.003H456.272C484.002 411.88 494.184 382.078 495.984 366.692C496.179 365.024 494.469 363.881 492.95 364.627Z" fill="#a3be61"/></g><g id="change2_5"><path d="M484.067 315.5C446.987 333.321 436.101 399.229 435.322 430.531H451.987C490.46 375.526 491.639 333.281 486.997 316.772C486.644 315.518 485.25 314.932 484.067 315.5Z" fill="#ffffff"/></g><g id="change3_6"><path clip-rule="evenodd" d="M485.89 317.077C485.739 316.541 485.138 316.252 484.57 316.525C466.469 325.224 454.606 345.768 447.176 368.314C439.946 390.25 437.006 413.802 436.506 429.392H451.385C489.387 374.82 490.402 333.124 485.89 317.077ZM483.566 314.475C485.363 313.612 487.551 314.495 488.105 316.466C492.865 333.391 491.54 375.982 452.933 431.18L452.59 431.67H434.145L434.174 430.503C434.565 414.766 437.494 390.351 444.989 367.607C452.467 344.918 464.587 323.597 483.566 314.475Z" fill="#a3be61" fill-rule="evenodd"/></g><g id="change3_7"><path clip-rule="evenodd" d="M482.111 329.056L466.848 369.874L475.793 365.826L476.749 367.898L465.721 372.889L451.883 409.898L459.657 406.835L460.507 408.952L450.808 412.773L444.02 430.927L441.863 430.135L455.631 393.314L448.558 377.704L450.657 376.771L456.771 390.266L471.707 350.321L468.029 338.427L470.228 337.76L473.024 346.8L479.954 328.265L482.111 329.056Z" fill="#a3be61" fill-rule="evenodd"/></g><g id="change5_1"><path d="M83.0825 301.541L80.9727 312.665L83.0825 324.318C88.5328 325.024 99.6444 326.437 100.488 326.437C101.332 326.437 107.521 321.14 110.51 318.491L107.345 301.541C116.206 298.574 119.125 285.473 119.477 279.293C121.586 253.868 104.708 250.689 101.543 250.689C98.3785 250.689 78.3355 250.689 75.6982 271.877C73.5884 288.828 79.742 298.716 83.0825 301.541Z" fill="#efcb96"/></g><g id="change2_6"><path d="M95.7403 319.551C85.1913 319.551 80.7959 313.194 79.3894 310.016L75.6973 311.075L98.9051 431.848H102.597H159.034L123.695 317.432L111.564 310.016H109.981C109.278 313.194 106.289 319.551 95.7403 319.551Z" fill="#ffffff"/></g><g id="change3_8"><path clip-rule="evenodd" d="M79.9997 308.705L80.3835 309.573C81.6714 312.483 85.7441 318.459 95.7408 318.459C100.781 318.459 103.891 316.948 105.818 315.171C107.765 313.375 108.603 311.215 108.921 309.779L109.11 308.924H111.869L124.612 316.714L160.511 432.94H98.008L74.4414 310.3L79.9997 308.705ZM110.82 311.108C110.318 312.783 109.289 314.935 107.289 316.78C104.908 318.975 101.249 320.643 95.7408 320.643C85.5022 320.643 80.6932 314.912 78.8111 311.318L76.9542 311.851L99.8032 430.756H157.559L122.779 318.15L111.259 311.108H110.82Z" fill="#a3be61" fill-rule="evenodd"/></g><g id="change4_3"><path d="M96.7954 373.051C93.8417 353.981 83.6092 322.729 78.8621 309.486C69.8955 311.075 49.9579 317.22 41.9406 329.085C33.9234 340.951 23.1282 380.29 18.7328 398.476C13.9858 414.897 13.9858 432.907 31.9191 432.907H113.146C121.586 416.486 118.948 408.541 116.311 405.363C114.201 402.82 104.841 400.772 100.425 400.066C99.277 390.577 98.0152 380.926 96.7954 373.051Z" fill="#f4ad5e"/></g><g id="change3_9"><path d="M67.2581 392.12L75.1698 359.808L73.06 391.59L112.098 401.51C115.136 402.282 117.92 404.18 118.781 407.206C121.348 416.237 117.352 426.643 114.201 430.259C117.432 426.551 117.366 408.541 113.674 405.892C110.72 403.774 74.1149 396.887 56.1816 393.709L67.2581 392.12Z" fill="#a3be61"/></g><g id="change3_10"><path d="M79.9178 274.526C77.808 280.459 83.6099 284.061 86.7746 285.12L81.0137 312.135L80.47 309.951C69.5964 311.043 57.0616 316.373 52.4904 319.551C49.8531 303.13 59.8747 296.244 65.6766 283.531C71.4786 270.818 66.7315 241.155 96.2687 241.155C119.898 241.155 123.344 262.343 122.114 272.937C111.565 269.971 105.411 258.988 103.653 253.868C102.598 256.516 93.6315 280.353 90.4668 274.526C87.3021 268.699 82.555 267.11 79.9178 274.526Z" fill="#a3be61"/></g><g id="change3_11"><path d="M129.498 314.783C122.325 307.579 119.477 290.947 118.949 283.531C117.261 295.82 110.51 300.658 107.345 301.541L108.928 310.016C118.211 309.592 126.509 313.018 129.498 314.783Z" fill="#a3be61"/></g><g id="change3_12"><path d="M39.3045 432.907C36.7727 415.957 24.0084 405.186 17.679 402.184C14.2593 416.035 15.0418 432.907 29.8104 432.907H39.3045Z" fill="#a3be61"/></g><g id="change3_13"><path d="M96.2937 301.86C101.357 303.555 106.123 302.02 107.881 301.314L108.969 308.412C102.217 307.564 97.7003 303.802 96.2937 301.86Z" fill="#a3be61"/></g><g id="change5_2"><path d="M205.691 340.88C204.92 344.044 201.346 346.268 200.703 347.421L212.44 357.689C214.368 353.899 217.095 345.756 226.736 344.569C240.233 343.086 241.408 332.932 234.659 331.449C229.26 330.262 219.833 332.171 214.851 333.16L220.543 330.675C221.331 330.331 221.597 329.341 221.088 328.646C220.807 328.262 220.346 328.053 219.872 328.082C217.933 328.198 214.375 328.37 211.476 330.498C208.626 332.59 206.655 336.925 205.691 340.88Z" fill="#efcb96"/></g><g id="change4_4"><path clip-rule="evenodd" d="M111.036 309.486C116.311 321.846 127.704 351.863 131.079 373.051C134.455 394.239 137.057 421.43 137.936 432.907H163.781L162.937 430.787C169.496 430.736 176.505 428.89 180.661 426.021C189.1 420.194 218.055 366.694 218.055 360.338C218.055 353.981 205.923 343.387 200.649 343.387C198.137 343.387 191.437 349.996 184.709 356.633C177.311 363.93 169.881 371.26 167.947 369.872C166.511 368.843 165.554 365.891 164.146 361.548C161.931 354.719 158.601 344.449 150.541 332.793C147.198 327.959 143.243 323.972 139.158 320.775C130.629 312.573 116.979 309.827 111.036 309.486Z" fill="#f4ad5e" fill-rule="evenodd"/></g><g id="change3_14"><path d="M145.848 361.927C147.529 382.517 154.254 419.361 157.056 432.907H163.781C160.643 425.972 150.331 383.6 145.848 361.927Z" fill="#a3be61"/></g><g id="change3_15"><path d="M191.209 412.249C187.517 418.605 183.297 427.08 174.331 429.199C170.399 430.515 166.393 430.916 162.727 430.81L156.925 423.015C169.289 415.892 184.241 412.686 191.209 412.249Z" fill="#a3be61"/></g><g id="change5_3"><path d="M151.123 432.907C151.123 418.499 129.849 414.191 119.476 413.838C119.476 421.042 115.784 428.14 112.619 432.907H151.123Z" fill="#efcb96"/></g><g id="change2_7"><path d="M171.798 363.45L146.255 421.25C144.973 424.152 147.106 427.41 150.287 427.41H228.23C230.02 427.41 231.632 426.33 232.309 424.679L255.989 366.879C257.172 363.991 255.04 360.829 251.91 360.829H175.83C174.084 360.829 172.502 361.857 171.798 363.45Z" fill="#ffffff"/></g><g id="change3_16"><path clip-rule="evenodd" d="M175.83 361.741C174.447 361.741 173.194 362.556 172.636 363.818L147.093 421.618C146.077 423.917 147.767 426.498 150.287 426.498H228.23C229.648 426.498 230.925 425.643 231.461 424.334L255.142 366.534C256.079 364.246 254.39 361.741 251.91 361.741H175.83ZM170.961 363.083C171.811 361.159 173.721 359.917 175.83 359.917H251.91C255.691 359.917 258.265 363.736 256.836 367.223L233.156 425.024C232.339 427.018 230.392 428.322 228.23 428.322H150.287C146.445 428.322 143.87 424.387 145.418 420.883L170.961 363.083Z" fill="#a3be61" fill-rule="evenodd"/></g><g id="change4_5"><path d="M195.607 389.495C197.039 386.185 200.31 384.041 203.928 384.041C210.443 384.041 214.829 390.686 212.249 396.647L211.606 398.133C210.174 401.443 206.903 403.587 203.285 403.587C196.77 403.587 192.384 396.942 194.964 390.981L195.607 389.495Z" fill="#f4ad5e"/></g><g id="change3_17"><path d="M227.007 432.907H91.7363C89.5358 432.907 87.752 431.13 87.752 428.937C87.752 426.744 89.5358 424.966 91.7363 424.966H227.006C229.862 424.966 231.79 427.871 230.674 430.489C230.049 431.955 228.605 432.907 227.007 432.907Z" fill="#a3be61"/></g><g id="change5_4"><path d="M245.932 288.468C247.043 292.795 249.59 297.412 249.751 298.03L239.84 309.797C238.724 308.985 235.696 306.908 232.507 305.091C228.521 302.82 220.716 293.623 218.49 287.606C216.265 281.589 223.771 276.368 228.078 277.239C229.991 278.329 235.887 283.8 238.596 286.398C238.28 284.283 238.19 280.046 240.36 280.016C243.072 279.979 244.822 284.142 245.932 288.468Z" fill="#efcb96"/></g><g id="change5_5"><path d="M371.156 205.159C387.092 216.426 380.394 236.457 377.392 244.22L378.707 260.059C377.345 265.045 372.403 275.018 363.535 275.018C354.666 275.018 350.601 266.504 349.678 262.248L351.063 250.229C340.67 246.473 339.978 231.45 340.67 219.431C341.493 205.158 357.12 195.234 371.156 205.159Z" fill="#efcb96"/></g><g id="change3_18"><path d="M376.894 240.292L378.275 253.912C378.735 252.903 379.793 249.978 380.345 246.346C381.035 241.805 392.08 224.402 388.629 211.539C385.867 201.248 378.274 201.702 374.823 203.215C372.752 199.432 360.327 186.569 342.38 188.082C324.433 189.595 322.363 215.322 336.858 219.105C348.455 222.132 361.478 220.366 366.54 219.105C367 220.114 368.335 223.494 369.991 228.942C372.062 235.752 372.062 237.265 372.752 232.725C373.443 228.185 376.204 219.862 379.655 228.185C382.416 234.844 378.965 239.031 376.894 240.292Z" fill="#a3be61"/></g><g id="change3_19"><path d="M366.865 249.955C362.116 252.752 354.771 251.12 351.693 249.955L351.033 254.849C357.894 256.526 364.446 252.286 366.865 249.955Z" fill="#a3be61"/></g><g id="change4_6"><path d="M364.151 267.889C354.493 267.889 349.356 262.616 347.682 259.475C347.489 259.112 347.116 258.864 346.705 258.871C316.489 259.389 295.406 294.251 288.323 312.364C288.167 312.761 287.794 313.017 287.37 312.974C278.551 312.072 258.082 295.251 252.384 293.985C246.528 292.684 235.468 308.621 234.818 313.011C234.167 317.402 256.287 362.284 265.396 368.789C272.204 373.651 285.198 377.566 291.995 377.352C292.672 377.331 293.247 377.905 293.163 378.577C290.911 396.42 289.211 415.796 291.296 420.66C294.391 427.879 323.533 432.907 347.388 432.907C388.65 432.907 441.904 431.876 448.61 425.172C456.991 416.792 446.031 312.367 427.334 285.938C412.723 265.285 390.565 258.533 380.933 258.832C380.525 258.844 380.185 259.115 380.013 259.485C378.558 262.628 373.797 267.889 364.151 267.889Z" fill="#f4ad5e"/></g><g id="change3_20"><path d="M410.57 409.702C419.854 399.904 432.491 369.092 437.648 354.91C436.359 374.463 418.951 418.726 410.57 418.726C392.002 422.851 346.527 392.942 326.111 377.471C350.396 392.297 401.286 419.5 410.57 409.702Z" fill="#a3be61"/></g><g id="change3_21"><path d="M312.57 300.119L306.123 319.457H301.61L312.57 300.119Z" fill="#a3be61"/></g><g id="change3_22"><path d="M384.135 409.057C399.608 396.165 416.371 393.802 422.818 394.231C421.099 400.033 414.05 411.378 407.345 412.925C400.64 414.472 389.722 411.206 384.135 409.057Z" fill="#a3be61"/></g><g id="change3_23"><path d="M377.689 351.688L384.78 317.524L370.597 349.754C357.702 346.531 343.733 346.531 336.426 346.531C366.083 351.688 380.267 357.489 393.807 361.357L377.689 351.688Z" fill="#a3be61"/></g><g id="change2_8"><path d="M311.338 318.315L315.697 381.194C315.745 381.897 315.088 382.439 314.406 382.258L258.439 367.336C258.035 367.228 257.737 366.887 257.684 366.472L250.211 307.322C250.124 306.63 250.737 306.054 251.423 306.184L310.504 317.376C310.963 317.463 311.306 317.849 311.338 318.315Z" fill="#ffffff"/></g><g id="change3_24"><path clip-rule="evenodd" d="M251.615 305.174C250.244 304.914 249.018 306.067 249.193 307.451L256.665 366.601C256.77 367.43 257.367 368.114 258.176 368.329L314.143 383.251C315.505 383.614 316.821 382.529 316.723 381.123L312.365 318.244C312.3 317.311 311.615 316.54 310.696 316.366L251.615 305.174ZM251.232 307.194L310.314 318.386L314.672 381.265L258.705 366.343L251.232 307.194Z" fill="#a3be61" fill-rule="evenodd"/></g><g id="change4_7"><path d="M274.313 346.216C276.149 353.095 280.984 357.779 285.112 356.678C289.241 355.577 291.099 349.107 289.263 342.228C287.428 335.348 282.593 330.664 278.464 331.765C274.336 332.867 272.477 339.336 274.313 346.216Z" fill="#f4ad5e"/></g><g id="change5_6"><path d="M322.243 343.952C325.252 346.673 330.259 349.077 332.408 351.226L328.69 369.092C325.595 368.576 319.797 366.611 316.143 365.536C312.023 364.669 303.262 362.154 301.18 359.032C298.577 355.129 295.975 340.168 301.18 340.819C305.344 341.339 311.746 343.637 314.427 345.372L313.541 334.964C319.988 336.898 319.035 341.052 322.243 343.952Z" fill="#efcb96"/></g><g id="change4_8"><path d="M121.001 93.8786L126.853 96.0565C127.895 96.4443 127.826 97.9408 126.753 98.232L120.869 99.8291C120.513 99.9258 120.225 100.188 120.097 100.534L117.769 106.787C117.394 107.795 115.963 107.776 115.615 106.759L113.431 100.378C113.325 100.067 113.091 99.8176 112.788 99.6918L105.946 96.8489C104.929 96.4267 105.037 94.9534 106.104 94.684L112.84 92.9832C113.168 92.9003 113.443 92.6764 113.59 92.3717L116.877 85.5661C117.36 84.5651 118.843 84.7725 119.033 85.8676L120.273 93.0026C120.343 93.4033 120.62 93.7368 121.001 93.8786Z" fill="#f4ad5e"/></g><g id="change4_9"><path d="M65.7569 147.593L67.1612 149.04C67.9356 149.838 67.231 151.16 66.1368 150.962L64.2111 150.614C63.8481 150.548 63.4757 150.661 63.211 150.918L61.4563 152.621C60.6851 153.369 59.401 152.737 59.5236 151.67L59.8108 149.169C59.8482 148.843 59.744 148.517 59.5246 148.273L57.6409 146.181C56.9046 145.363 57.6352 144.079 58.7144 144.294L61.1981 144.789C61.53 144.855 61.8741 144.771 62.1379 144.559L64.3601 142.774C65.2267 142.078 66.4767 142.902 66.178 143.973L65.476 146.49C65.3668 146.881 65.4737 147.301 65.7569 147.593Z" fill="#f4ad5e"/></g></svg>